
        <svg xmlns="http://www.w3.org/2000/svg" xmlns:xlink="http://www.w3.org/1999/xlink" version="1.1" width="3162.1621621621625" 
        height="972.9704423428112" viewBox="0 0 3162.1621621621625 972.9704423428112">
			
			<g transform="scale(8.108108108108109) translate(10, 10)">
				<defs id="SvgjsDefs1213"></defs><g id="SvgjsG1214" featureKey="Ez5wPW-0" transform="matrix(1.1363616659655726,0,0,1.1363616659655726,-6.818081672700235,-6.818169995793436)" fill="#9ebaf9"><g xmlns="http://www.w3.org/2000/svg" transform="translate(0,-952.36218)"><path style="text-indent:0;text-transform:none;direction:ltr;block-progression:tb;baseline-shift:baseline;color:;enable-background:accumulate;" d="m 13.540789,1013.168 c -4.1612604,0 -7.5408665,3.3922 -7.5408665,7.5693 0,4.1771 3.3796061,7.605 7.5408665,7.605 0.813543,0 1.613976,-0.1361 2.383228,-0.3928 12.281102,18.8997 36.649842,23.2608 54.493227,13.032 0.521221,-0.2991 0.724607,-1.0475 0.426614,-1.571 -0.297992,-0.5234 -1.043503,-0.7275 -1.565078,-0.4284 -16.772953,9.6153 -39.67122,5.6292 -51.327282,-12.1037 1.894251,-1.3812 3.130157,-3.6195 3.130157,-6.1411 0,-4.1771 -3.379252,-7.5693 -7.540866,-7.5693 z" fill="#111111" fill-opacity="1" fill-rule="evenodd" stroke="none" marker="none" visibility="visible" display="inline" overflow="visible"></path><path style="text-indent:0;text-transform:none;direction:ltr;block-progression:tb;baseline-shift:baseline;color:;enable-background:accumulate;" d="m 70.417244,970.57299 c -0.951023,0.12132 -1.237323,1.69026 -0.391181,2.14225 13.429842,8.21899 20.928543,24.30182 17.64248,40.55986 -0.392953,-0.067 -0.80185,-0.107 -1.209331,-0.107 -4.161259,0 -7.540866,3.3922 -7.540866,7.5692 0,4.1771 3.379607,7.605 7.540866,7.605 4.16126,0 7.540866,-3.4279 7.540866,-7.605 0,-2.9516 -1.686968,-5.51 -4.161614,-6.748 3.607441,-17.29107 -4.331338,-34.48188 -18.638503,-43.23773 -0.189921,-0.12122 -0.415984,-0.18423 -0.64063,-0.17852 -0.04784,-0.003 -0.09425,-0.003 -0.142087,0 z" fill="#111111" fill-opacity="1" fill-rule="evenodd" stroke="none" marker="none" visibility="visible" display="inline" overflow="visible"></path><path style="text-indent:0;text-transform:none;direction:ltr;block-progression:tb;baseline-shift:baseline;color:;enable-background:accumulate;" d="m 50.000001,958.36218 c -4.012441,0 -7.27441,3.16987 -7.505079,7.14083 -17.197086,3.19362 -29.727637,16.85266 -32.5821254,33.06201 a 1.1383515,1.1426463 0 1 0 2.2407874,0.39275 c 2.681221,-15.22486 14.388307,-28.07084 30.518858,-31.1697 0.826653,3.28539 3.802677,5.71266 7.327559,5.71266 4.161259,0 7.540866,-3.39219 7.540866,-7.56928 0,-4.17708 -3.379607,-7.56927 -7.540866,-7.56927 z" fill="#111111" fill-opacity="1" fill-rule="evenodd" stroke="none" marker="none" visibility="visible" display="inline" overflow="visible"></path></g></g><g id="SvgjsG1215" featureKey="nameFeature-0" transform="matrix(3.5014008595357824,0,0,3.5014008595357824,117.75910391738455,3.2605031073222968)" fill="#111111"><path d="M0.64 20 l0 -0.3 l1.72 0 l0 -12.62 l-1.72 0 l0 -0.3 l5.72 0 c3.26 0 4.8 1.32 4.8 3.18 c0 1.48 -1 2.68 -3.52 3.18 l0 0.04 c2.68 0.38 4.1 1.44 4.1 3.26 c0 2.1 -1.64 3.56 -5.24 3.56 l-5.86 0 z M4.8 13.08 l1.28 0 c1.6 0 2.56 -0.64 2.56 -2.86 c0 -2.26 -0.92 -3.14 -2.52 -3.14 l-1.32 0 l0 6 z M4.8 19.7 l1.54 0 c1.94 0 2.86 -1.06 2.86 -3.28 s-0.98 -3.04 -2.96 -3.04 l-1.44 0 l0 6.32 z M13.2 20 l0 -0.3 l1.74 0 l0 -12.62 l-1.74 0 l0 -0.3 l5.64 0 c3.72 0 5 1.38 5 3.36 c0 1.58 -1.02 2.84 -3.92 3.24 l0 0.04 c1.82 0.3 3.26 1.24 3.5 3.32 c0.16 1.48 0.1 2.88 0.94 2.88 c0.52 0 0.86 -0.6 0.86 -1.36 l0.3 0 c-0.02 1.22 -0.6 1.84 -1.82 1.84 c-2.44 0 -2.84 -2.14 -2.94 -3.52 c-0.08 -1.08 -0.22 -3.02 -1.74 -3.02 l-1.64 0 l0 6.14 l1.72 0 l0 0.3 l-5.9 0 z M17.38 13.26 l1.6 0 c1.74 0 2.28 -1 2.28 -3 c0 -2.06 -0.6 -3.18 -2.38 -3.18 l-1.5 0 l0 6.18 z M26.26 20 l0 -0.3 l1.72 0 l0 -12.62 l-1.72 0 l0 -0.3 l10.24 0 s-0.42 1.58 -0.58 3.74 l-0.3 0 l0 -1.98 c0 -1.16 -0.28 -1.46 -1.12 -1.46 l-4.08 0 l0 6.24 l3.12 0 l0 -1.76 l0.3 0 l0 4 l-0.3 0 l0 -1.94 l-3.12 0 l0 6.08 l4.06 0 c1.18 0 1.4 -1.24 1.76 -3.66 l0.32 0 s-0.3 1.82 -0.3 3.96 l-10 0 z M37.9 20 l0 -0.32 l7.82 -12.6 l-5.24 0 c-1.24 0 -1.3 1.14 -1.7 3.46 l-0.3 0 s0.14 -1.74 0.14 -3.76 l9.92 0 l0 0.32 l-7.88 12.6 l5.7 0 c1.22 0 1.46 -1.24 1.84 -3.66 l0.3 0 s-0.3 1.82 -0.3 3.96 l-10.3 0 z M49.96 20 l0 -0.3 l1.72 0 l0 -12.62 l-1.72 0 l0 -0.3 l10.24 0 s-0.42 1.58 -0.58 3.74 l-0.3 0 l0 -1.98 c0 -1.16 -0.28 -1.46 -1.12 -1.46 l-4.08 0 l0 6.24 l3.12 0 l0 -1.76 l0.3 0 l0 4 l-0.3 0 l0 -1.94 l-3.12 0 l0 6.08 l4.06 0 c1.18 0 1.4 -1.24 1.76 -3.66 l0.32 0 s-0.3 1.82 -0.3 3.96 l-10 0 z M61.74 20 l0 -0.3 l1.72 0 l0 -12.62 l-1.72 0 l0 -0.3 l10.24 0 s-0.42 1.58 -0.58 3.74 l-0.3 0 l0 -1.98 c0 -1.16 -0.28 -1.46 -1.12 -1.46 l-4.08 0 l0 6.24 l3.12 0 l0 -1.76 l0.3 0 l0 4 l-0.3 0 l0 -1.94 l-3.12 0 l0 6.08 l4.06 0 c1.18 0 1.4 -1.24 1.76 -3.66 l0.32 0 s-0.3 1.82 -0.3 3.96 l-10 0 z"></path></g>
			</g>
		</svg>
	