
        <svg xmlns="http://www.w3.org/2000/svg" xmlns:xlink="http://www.w3.org/1999/xlink" version="1.1" width="3200" 
        height="759.6640207767451" viewBox="0 0 3200 759.6640207767451">
			
			<g transform="scale(10) translate(10, 10)">
				<defs id="SvgjsDefs1081"></defs><g id="SvgjsG1082" featureKey="nameFeature-0" transform="matrix(4.201681031442939,0,0,4.201681031442939,-2.689075299138541,-28.487396271213246)" fill="#2a2a2a"><path d="M0.64 20 l0 -0.3 l1.72 0 l0 -12.62 l-1.72 0 l0 -0.3 l5.72 0 c3.26 0 4.8 1.32 4.8 3.18 c0 1.48 -1 2.68 -3.52 3.18 l0 0.04 c2.68 0.38 4.1 1.44 4.1 3.26 c0 2.1 -1.64 3.56 -5.24 3.56 l-5.86 0 z M4.8 13.08 l1.28 0 c1.6 0 2.56 -0.64 2.56 -2.86 c0 -2.26 -0.92 -3.14 -2.52 -3.14 l-1.32 0 l0 6 z M4.8 19.7 l1.54 0 c1.94 0 2.86 -1.06 2.86 -3.28 s-0.98 -3.04 -2.96 -3.04 l-1.44 0 l0 6.32 z M13.2 20 l0 -0.3 l1.74 0 l0 -12.62 l-1.74 0 l0 -0.3 l5.64 0 c3.72 0 5 1.38 5 3.36 c0 1.58 -1.02 2.84 -3.92 3.24 l0 0.04 c1.82 0.3 3.26 1.24 3.5 3.32 c0.16 1.48 0.1 2.88 0.94 2.88 c0.52 0 0.86 -0.6 0.86 -1.36 l0.3 0 c-0.02 1.22 -0.6 1.84 -1.82 1.84 c-2.44 0 -2.84 -2.14 -2.94 -3.52 c-0.08 -1.08 -0.22 -3.02 -1.74 -3.02 l-1.64 0 l0 6.14 l1.72 0 l0 0.3 l-5.9 0 z M17.38 13.26 l1.6 0 c1.74 0 2.28 -1 2.28 -3 c0 -2.06 -0.6 -3.18 -2.38 -3.18 l-1.5 0 l0 6.18 z M26.26 20 l0 -0.3 l1.72 0 l0 -12.62 l-1.72 0 l0 -0.3 l10.24 0 s-0.42 1.58 -0.58 3.74 l-0.3 0 l0 -1.98 c0 -1.16 -0.28 -1.46 -1.12 -1.46 l-4.08 0 l0 6.24 l3.12 0 l0 -1.76 l0.3 0 l0 4 l-0.3 0 l0 -1.94 l-3.12 0 l0 6.08 l4.06 0 c1.18 0 1.4 -1.24 1.76 -3.66 l0.32 0 s-0.3 1.82 -0.3 3.96 l-10 0 z M37.9 20 l0 -0.32 l7.82 -12.6 l-5.24 0 c-1.24 0 -1.3 1.14 -1.7 3.46 l-0.3 0 s0.14 -1.74 0.14 -3.76 l9.92 0 l0 0.32 l-7.88 12.6 l5.7 0 c1.22 0 1.46 -1.24 1.84 -3.66 l0.3 0 s-0.3 1.82 -0.3 3.96 l-10.3 0 z M49.96 20 l0 -0.3 l1.72 0 l0 -12.62 l-1.72 0 l0 -0.3 l10.24 0 s-0.42 1.58 -0.58 3.74 l-0.3 0 l0 -1.98 c0 -1.16 -0.28 -1.46 -1.12 -1.46 l-4.08 0 l0 6.24 l3.12 0 l0 -1.76 l0.3 0 l0 4 l-0.3 0 l0 -1.94 l-3.12 0 l0 6.08 l4.06 0 c1.18 0 1.4 -1.24 1.76 -3.66 l0.32 0 s-0.3 1.82 -0.3 3.96 l-10 0 z M61.74 20 l0 -0.3 l1.72 0 l0 -12.62 l-1.72 0 l0 -0.3 l10.24 0 s-0.42 1.58 -0.58 3.74 l-0.3 0 l0 -1.98 c0 -1.16 -0.28 -1.46 -1.12 -1.46 l-4.08 0 l0 6.24 l3.12 0 l0 -1.76 l0.3 0 l0 4 l-0.3 0 l0 -1.94 l-3.12 0 l0 6.08 l4.06 0 c1.18 0 1.4 -1.24 1.76 -3.66 l0.32 0 s-0.3 1.82 -0.3 3.96 l-10 0 z"></path></g>
			</g>
		</svg>
	